<svg xmlns="http://www.w3.org/2000/svg" width="417" height="293" viewBox="0 0 417 293">
  <path id="A-Z_1" data-name="A-Z 1" class="cls-1" d="M237.82,279.309L215.016,293H201.984l-22.8-13.69H0V26.538H60.6L148.44,1,208.5,26.538,268.071,1l89.311,25.538H417V279.309H237.82Zm-35.836-242.5L148.44,13.722,32.578,50.582v198.33l60.27-27.784,55.592-9.779,53.544,16.686V36.806ZM186.039,229.014l-37.6-7.886L53.754,248.912h148.23ZM268.071,13.4l-53.055,23.41V229.014l53.055-17.665,55.756,9.779,60.6,22.891V50.909ZM215.016,248.912H365.852l-97.781-27.784-36.621,6.907ZM407.227,36.806h-22.8l9.773,6.845V258.7H22.8V43.651l9.773-6.845H9.773V269.531H186.039l15.945,9.778h13.032l16.434-9.778H407.227V36.806ZM350.752,186.2v9.875H231.309v-7.022L312.837,60.894H265.279q-12.276,0-18.738,6.254t-6.466,20.3H233.5V68.794q0-17.554,18.628-17.556h99.719L265.937,186.2h84.815ZM133.659,156.773H77.486L60.17,195.219H49.189L111.485,55.8h9.5l47.3,112.8q8.023,19.645,21.963,21.124v5.281a39.216,39.216,0,0,1-10.137,1.056,51.4,51.4,0,0,1-24.074-5.6q-10.77-5.6-17.527-21.863ZM106.417,92.135l-24.5,55.133h47.725Z"/>
</svg>
