<svg xmlns="http://www.w3.org/2000/svg" width="100" height="100" viewBox="0 0 100 100">
  <defs>
    <style>
      .cls-1 {
        fill: #ff3;
        fill-rule: evenodd;
      }
    </style>
  </defs>
  <path id="A-Z_1" data-name="A-Z 1" class="cls-1" d="M57.031,81.718L51.563,85H48.438l-5.469-3.282H0v-60.6H14.531L35.6,15,50,21.122,64.286,15,85.7,21.122H100v60.6H57.031ZM48.438,23.584L35.6,18.05,7.812,26.886V74.431L22.266,67.77,35.6,65.426l12.84,4V23.584ZM44.614,69.661L35.6,67.77,12.891,74.431H48.438ZM64.286,17.972L51.563,23.584V69.661l12.723-4.235,13.37,2.344,14.531,5.488V26.964ZM51.563,74.431H87.734L64.286,67.77,55.5,69.426ZM97.656,23.584H92.188l2.344,1.641V76.777H5.469V25.224l2.344-1.641H2.344v55.79h42.27l3.824,2.344h3.125L55.5,79.374H97.656V23.584ZM84.113,59.4v2.367H55.47V60.08L75.021,29.358h-11.4a6.209,6.209,0,0,0-4.494,1.5q-1.551,1.5-1.55,4.866H56V31.252q0-4.208,4.467-4.209H84.376L63.774,59.4H84.113ZM32.052,52.343H18.582l-4.153,9.216H11.8L26.735,28.137h2.279L40.358,55.179q1.924,4.709,5.267,5.064v1.266a9.408,9.408,0,0,1-2.431.253A12.329,12.329,0,0,1,37.42,60.42q-2.583-1.341-4.2-5.241Zm-6.533-15.5L19.645,50.064H31.09Z"/>
</svg>
