<svg
        width="424.5px" height="299.5px">
  <path fill-rule="evenodd"  stroke="rgb(102, 255, 51)" stroke-width="5px" stroke-linecap="butt" stroke-linejoin="miter" fill="none"
        d="M240.320,280.809 L217.516,294.499 L204.484,294.499 L181.680,280.809 L2.500,280.809 L2.500,28.038 L63.095,28.038 L150.940,2.500 L211.000,28.038 L270.571,2.500 L359.882,28.038 L419.500,28.038 L419.500,280.809 L240.320,280.809 ZM204.484,38.306 L150.940,15.222 L35.078,52.082 L35.078,250.412 L95.348,222.628 L150.940,212.849 L204.484,229.535 L204.484,38.306 ZM188.539,230.514 L150.940,222.628 L56.254,250.412 L204.484,250.412 L188.539,230.514 ZM270.571,14.896 L217.516,38.306 L217.516,230.514 L270.571,212.849 L326.327,222.628 L386.922,245.519 L386.922,52.409 L270.571,14.896 ZM217.516,250.412 L368.352,250.412 L270.571,222.628 L233.950,229.535 L217.516,250.412 ZM409.727,38.306 L386.922,38.306 L396.695,45.150 L396.695,260.198 L25.305,260.198 L25.305,45.150 L35.078,38.306 L12.273,38.306 L12.273,271.031 L188.539,271.031 L204.484,280.809 L217.516,280.809 L233.950,271.031 L409.727,271.031 L409.727,38.306 ZM353.252,187.696 L353.252,197.571 L233.809,197.571 L233.809,190.549 L315.337,62.394 L267.779,62.394 C259.595,62.394 253.349,64.479 249.041,68.648 C244.729,72.817 242.575,79.586 242.575,88.947 L236.001,88.947 L236.001,70.294 C236.001,58.591 242.209,52.738 254.629,52.738 L354.348,52.738 L268.437,187.696 L353.252,187.696 ZM136.159,158.273 L79.986,158.273 L62.670,196.719 L51.689,196.719 L113.985,57.302 L123.488,57.302 L170.791,170.103 C176.140,183.200 183.462,190.243 192.754,191.227 L192.754,196.508 C190.220,197.211 186.841,197.564 182.617,197.564 C173.748,197.564 165.723,195.699 158.543,191.966 C151.363,188.236 145.520,180.949 141.016,170.103 L136.159,158.273 ZM108.917,93.635 L84.421,148.768 L132.146,148.768 L108.917,93.635 Z"/>
</svg>